Octubre/October/Outubro (2010) - Daniel Vega Vidal & Diego Vega Vidal, 2010)


Quote:

Clemente, a moneylender of few words, is a new hope for Sofía, his single neighbor, devoted to the October worship of Our Lord of the Miracles. They're brought together over a new-born baby, fruit of Clemente's relationship with a prostitute who's nowhere to be found. While Clemente is looking for the girl's mother, Sofía cares for the baby and looks after the moneylender's house. With the arrival of these beings in his life, Clemente has the opportunity to reconsider his emotional relations with people.

_________________________________________________________________________________


(Cannes 2010 Un Certain Regard Jury Prize Winner)


Source: Dvdrip (1CD)


Rip Specs:

Format : AVI
Format/Info : Audio Video Interleave
File size : 694 MiB
Duration : 1h 23mn
Overall bit rate mode : Variable
Overall bit rate : 1 166 Kbps
Writing application : Nandub v1.0rc2
Writing library : Nandub build 1852/release

Video
ID : 0
Format : MPEG-4 Visual
Format profile : Advanced Simple@L5
Format settings, BVOP : 2
Format settings, QPel : No
Format settings, GMC : No warppoints
Format settings, Matrix : Default (MPEG)
Muxing mode : Packed bitstream
Codec ID : XVID
Codec ID/Hint : XviD
Duration : 1h 23mn
Bit rate : 1 006 Kbps
Width : 640 pixels
Height : 272 pixels
Display aspect ratio : 2.35:1
Frame rate : 23.976 fps
Color space : YUV
Chroma subsampling : 4:2:0
Bit depth : 8 bits
Scan type : Progressive
Compression mode : Lossy
Bits/(Pixel*Frame) : 0.241
Stream size : 598 MiB (86%)
Writing library : XviD 72

Audio
ID : 1
Format : MPEG Audio
Format version : Version 1
Format profile : Layer 3
Mode : Joint stereo
Mode extension : MS Stereo
Codec ID : 55
Codec ID/Hint : MP3
Duration : 1h 23mn
Bit rate mode : Variable
Bit rate : 148 Kbps
Channel(s) : 2 channels
Sampling rate : 48.0 KHz
Compression mode : Lossy
Stream size : 87.8 MiB (13%)
Alignment : Aligned on interleaves
Interleave, duration : 24 ms (0.58 video frame)
Interleave, preload duration : 130 ms
Writing library : LAME3.93
Encoding settings : -m j -V 1 -q 2 -lowpass 19.5 --vbr-new 